<svg width="24" height="24" viewBox="0 0 24 24" fill="none" xmlns="http://www.w3.org/2000/svg">
<path d="M8.19628 9.05793H14.2279M8.19628 12.5141H12.0346M12.6107 18.9268H13.6721C16.5589 18.9268 19.0701 16.8499 19.7476 13.9021C20.0841 12.4382 20.0841 10.9113 19.7476 9.44741L19.6588 9.06088C19.0057 6.21958 16.877 4.01204 14.1641 3.36264L13.783 3.27141C12.2712 2.90953 10.7013 2.90953 9.18953 3.27141L8.96648 3.32481C6.15677 3.99738 3.95212 6.28371 3.27571 9.22642C2.90585 10.8355 2.90923 12.5287 3.27909 14.1378C3.96607 17.1265 5.98688 19.6138 8.69777 20.7728L8.81593 20.8233C9.98904 21.3249 11.3329 20.7208 11.8142 19.4902C11.9467 19.1515 12.2622 18.9268 12.6107 18.9268Z" stroke="#1C1243" stroke-width="1.5" stroke-linecap="round"/>
</svg>
