<svg width="34" height="33" viewBox="0 0 34 33" fill="none" xmlns="http://www.w3.org/2000/svg">
<path d="M23.5 20C29.299 20 34 15.5228 34 9.99999C34 4.47715 29.299 0 23.5 0C17.701 0 13 4.47715 13 9.99999C13 15.5228 17.701 20 23.5 20Z" fill="#FF8A00"/>
<path d="M16 33C17.6569 33 19 31.6569 19 30C19 28.3431 17.6569 27 16 27C14.3431 27 13 28.3431 13 30C13 31.6569 14.3431 33 16 33Z" fill="#FF6A5D"/>
<path d="M3.96983 16.4852C3.8831 16.4852 3.79993 16.4507 3.73861 16.3894C3.67728 16.3281 3.64282 16.2449 3.64282 16.1582V14.327C3.64282 14.2403 3.67728 14.1571 3.73861 14.0958C3.79993 14.0345 3.8831 14 3.96983 14C4.05656 14 4.13973 14.0345 4.20106 14.0958C4.26239 14.1571 4.29684 14.2403 4.29684 14.327V16.1582C4.29684 16.2449 4.26239 16.3281 4.20106 16.3894C4.13973 16.4507 4.05656 16.4852 3.96983 16.4852Z" fill="#FF6A5D"/>
<path d="M7.64526 18.2836H5.81406C5.72734 18.2836 5.64417 18.2492 5.58284 18.1879C5.52152 18.1265 5.48706 18.0434 5.48706 17.9566C5.48706 17.8699 5.52152 17.7867 5.58284 17.7254C5.64417 17.6641 5.72734 17.6296 5.81406 17.6296H7.64526C7.73198 17.6296 7.81515 17.6641 7.87648 17.7254C7.9378 17.7867 7.97226 17.8699 7.97226 17.9566C7.97226 18.0434 7.9378 18.1265 7.87648 18.1879C7.81515 18.2492 7.73198 18.2836 7.64526 18.2836Z" fill="#FF6A5D"/>
<path d="M3.96982 21.9461C3.8831 21.9461 3.79993 21.9117 3.7386 21.8503C3.67728 21.789 3.64282 21.7058 3.64282 21.6191V19.7552C3.64282 19.6685 3.67728 19.5853 3.7386 19.524C3.79993 19.4627 3.8831 19.4282 3.96982 19.4282C4.05655 19.4282 4.13972 19.4627 4.20104 19.524C4.26236 19.5853 4.29682 19.6685 4.29682 19.7552V21.5864C4.30141 21.632 4.29636 21.6781 4.28199 21.7216C4.26762 21.7651 4.24425 21.8052 4.21341 21.8391C4.18258 21.873 4.14497 21.9001 4.103 21.9185C4.06104 21.9369 4.01566 21.9463 3.96982 21.9461Z" fill="#FF6A5D"/>
<path d="M2.1582 18.2836H0.326998C0.240273 18.2836 0.157104 18.2492 0.0957803 18.1879C0.0344562 18.1265 0 18.0434 0 17.9566C0 17.8699 0.0344562 17.7867 0.0957803 17.7254C0.157104 17.6641 0.240273 17.6296 0.326998 17.6296H2.1582C2.24493 17.6296 2.32809 17.6641 2.38942 17.7254C2.45074 17.7867 2.4852 17.8699 2.4852 17.9566C2.4852 18.0434 2.45074 18.1265 2.38942 18.1879C2.32809 18.2492 2.24493 18.2836 2.1582 18.2836Z" fill="#FF6A5D"/>
</svg>
