<svg width="24" height="24" viewBox="0 0 24 24" fill="none" xmlns="http://www.w3.org/2000/svg">
<g clip-path="url(#clip0_113_7148)">
<path d="M18.0736 5.35855C17.3185 4.66794 16.4839 4.06414 15.5851 3.56092C13.0958 2.1673 10.032 2.3041 7.67681 3.91402C5.97595 5.07668 4.56718 6.61713 3.56073 8.41484C2.16712 10.9041 2.30392 13.968 3.91384 16.3231C5.0765 18.024 6.61694 19.4327 8.41465 20.4392C10.9039 21.8328 13.9678 21.696 16.3229 20.0861C17.1734 19.5047 17.9508 18.829 18.6414 18.0738" stroke="#1C1243" stroke-width="1.5" stroke-linecap="round"/>
<path d="M16.5888 14.6328L13.9863 11.5953M13.9863 11.5953L17.53 8.55898M13.9863 11.5953L23.2058 11.5971" stroke="#1C1243" stroke-width="1.5" stroke-linecap="round" stroke-linejoin="round"/>
</g>
<defs>
<clipPath id="clip0_113_7148">
<rect width="24" height="24" fill="white"/>
</clipPath>
</defs>
</svg>
