<svg width="24" height="24" viewBox="0 0 24 24" fill="none" xmlns="http://www.w3.org/2000/svg">
<path d="M2.44414 8.78418C2.81747 7.12497 4.10448 5.81882 5.76653 5.41238C8.03218 4.85834 10.4252 4.86467 12.6909 5.41871C14.332 5.82005 15.6361 7.09343 16.049 8.72135L16.074 8.81991C16.6868 11.2356 16.6868 13.7644 16.074 16.1801L16.049 16.2787C15.6361 17.9066 14.332 19.18 12.6909 19.5813C10.4252 20.1353 8.03218 20.1417 5.76653 19.5876C4.10449 19.1812 2.81747 17.875 2.44414 16.2158L2.3825 15.9419C1.8725 13.6752 1.8725 11.3248 2.3825 9.05815L2.44414 8.78418Z" stroke="#1C1243" stroke-width="1.5"/>
<path d="M16.1633 15.8084L16.3603 15.8736C16.4115 15.8905 16.4614 15.9111 16.5097 15.9351L18.1936 16.7713C19.4829 17.4117 21 16.4804 21 15.0485L21 10.3101C21 8.79729 19.3246 7.87498 18.033 8.67679L16.5474 9.59908C16.4742 9.64452 16.4064 9.69808 16.3453 9.75871L16.2904 9.81325C16.6526 11.7977 16.6102 13.8366 16.1633 15.8084Z" stroke="#1C1243" stroke-width="1.5"/>
</svg>
