<svg width="24" height="24" viewBox="0 0 24 24" fill="none" xmlns="http://www.w3.org/2000/svg">
<path d="M16.8441 8.66971H14.5379V7.54504C14.5379 7.34952 14.5519 7.2214 14.5699 7.13852C14.5881 7.05499 14.6086 7.02589 14.6151 7.01876C14.6174 7.01666 14.7203 6.91903 15.2362 6.91903H15.2363L16.9748 6.91842C16.9748 6.91842 16.9748 6.91842 16.9748 6.91842C17.5901 6.9184 18.1 6.44359 18.1 5.84827V2.97412C18.1 2.37975 17.5908 1.90496 16.9764 1.90397L16.9764 1.90397L14.3942 1.9H14.3941C12.7794 1.9 11.3979 2.4042 10.4065 3.36654C9.41921 4.32485 8.90089 5.65988 8.90089 7.21973V8.66987H7.02557C6.41011 8.66987 5.9 9.14466 5.9 9.74002V12.8356C5.9 13.4308 6.4101 13.9057 7.02557 13.9057H8.90089V21.0298C8.90089 21.6252 9.411 22.1 10.0265 22.1H13.4122C14.0276 22.1 14.5379 21.6252 14.5379 21.0298V13.9056H16.8523C17.4677 13.9056 17.9779 13.4308 17.9779 12.8358C17.9779 12.8358 17.9779 12.8357 17.9779 12.8357L17.9792 9.74021V9.74017C17.9792 9.34953 17.7544 8.99147 17.3983 8.80322L17.3983 8.80321C17.2322 8.71551 17.0405 8.66971 16.8441 8.66971ZM13.0983 13.2808V20.7275H10.3403V13.2808C10.3403 12.8632 9.98316 12.5331 9.55577 12.5331H7.33945V10.0424H9.55577C9.98317 10.0424 10.3403 9.71203 10.3403 9.29462V7.21973C10.3403 5.99326 10.7308 5.00916 11.4261 4.3316C12.1216 3.65376 13.1327 3.2725 14.393 3.27249C14.393 3.27249 14.3931 3.27249 14.3931 3.27249L16.6605 3.27599V5.54598L15.2359 5.54655C15.2359 5.54655 15.2359 5.54655 15.2359 5.54655C14.7511 5.54655 14.0136 5.59863 13.5399 6.10626C13.1462 6.528 13.0983 7.08424 13.0983 7.54504V9.29462C13.0983 9.7122 13.4555 10.0424 13.8829 10.0424H16.5395L16.5385 12.5331H13.8831C13.4557 12.5331 13.0983 12.8632 13.0983 13.2808Z" fill="#1C1243" stroke="#1C1243" stroke-width="0.2"/>
</svg>
