<svg width="121" height="112" viewBox="0 0 121 112" fill="none" xmlns="http://www.w3.org/2000/svg">
<ellipse opacity="0.6" cx="11.6341" cy="74.3899" rx="2.00625" ry="2.00625" transform="rotate(-15.1562 11.6341 74.3899)" fill="#FF8A00"/>
<path opacity="0.6" d="M4.87622 64.7884L4.61395 63.8202C4.03456 61.6812 5.29884 59.4776 7.4378 58.8982V58.8982V58.8982C9.57676 58.3188 11.7804 59.5831 12.3598 61.722L12.4234 61.957C12.7185 63.0464 12.5688 64.2085 12.0071 65.1876L10.0605 68.5805" stroke="#FF8A00" stroke-width="3" stroke-linecap="round" stroke-linejoin="round"/>
<ellipse opacity="0.5" cx="98.6045" cy="107.241" rx="1.65545" ry="1.65544" transform="rotate(35.2753 98.6045 107.241)" fill="#FFE7CC" stroke="#FFE7CC" stroke-width="1.5" stroke-linecap="round" stroke-linejoin="round"/>
<path opacity="0.5" d="M101.16 97.8963L101.638 97.2205C102.694 95.7277 104.76 95.3736 106.253 96.4296V96.4296V96.4296C107.746 97.4856 108.1 99.5518 107.044 101.045L106.928 101.209C106.39 101.969 105.572 102.484 104.654 102.642L101.473 103.187" stroke="#FFE7CC" stroke-width="3" stroke-linecap="round" stroke-linejoin="round"/>
<path d="M11.3291 29.1042C12.6154 29.1042 13.6582 28.0615 13.6582 26.7753C13.6582 25.489 12.6154 24.4463 11.3291 24.4463C10.0428 24.4463 9 25.489 9 26.7753C9 28.0615 10.0428 29.1042 11.3291 29.1042Z" fill="#E15A93"/>
<path d="M118.671 89.5049C119.957 89.5049 121 88.4622 121 87.1759C121 85.8897 119.957 84.847 118.671 84.847C117.385 84.847 116.342 85.8897 116.342 87.1759C116.342 88.4622 117.385 89.5049 118.671 89.5049Z" fill="#FF8A00"/>
<path d="M15.4611 87.5957C15.3741 87.5957 15.2907 87.5612 15.2291 87.4996C15.1676 87.4381 15.1331 87.3547 15.1331 87.2677V85.2011C15.1331 85.1141 15.1676 85.0307 15.2291 84.9692C15.2907 84.9077 15.3741 84.8731 15.4611 84.8731C15.5481 84.8731 15.6315 84.9077 15.6931 84.9692C15.7546 85.0307 15.7891 85.1141 15.7891 85.2011V87.2677C15.7891 87.3547 15.7546 87.4381 15.6931 87.4996C15.6315 87.5612 15.5481 87.5957 15.4611 87.5957Z" fill="#FF6A5D"/>
<path d="M19.5944 89.6557H17.4949C17.4079 89.6557 17.3245 89.6211 17.263 89.5596C17.2014 89.4981 17.1669 89.4146 17.1669 89.3276C17.1669 89.2406 17.2014 89.1572 17.263 89.0957C17.3245 89.0342 17.4079 88.9996 17.4949 88.9996H19.5944C19.6814 88.9996 19.7648 89.0342 19.8264 89.0957C19.8879 89.1572 19.9224 89.2406 19.9224 89.3276C19.9224 89.4146 19.8879 89.4981 19.8264 89.5596C19.7648 89.6211 19.6814 89.6557 19.5944 89.6557Z" fill="#FF6A5D"/>
<path d="M15.4611 93.7823C15.3741 93.7823 15.2907 93.7478 15.2291 93.6862C15.1676 93.6247 15.1331 93.5413 15.1331 93.4543V91.3877C15.1331 91.3007 15.1676 91.2173 15.2291 91.1558C15.2907 91.0943 15.3741 91.0597 15.4611 91.0597C15.5481 91.0597 15.6315 91.0943 15.6931 91.1558C15.7546 91.2173 15.7891 91.3007 15.7891 91.3877V93.4543C15.7891 93.5413 15.7546 93.6247 15.6931 93.6862C15.6315 93.7478 15.5481 93.7823 15.4611 93.7823Z" fill="#FF6A5D"/>
<path d="M13.4077 89.6557H11.3345C11.2474 89.6557 11.164 89.6211 11.1025 89.5596C11.041 89.4981 11.0064 89.4146 11.0064 89.3276C11.0064 89.2407 11.041 89.1572 11.1025 89.0957C11.164 89.0342 11.2474 88.9996 11.3345 88.9996H13.4011C13.4881 88.9987 13.5719 89.0325 13.6341 89.0934C13.6962 89.1543 13.7316 89.2374 13.7325 89.3244C13.7333 89.4114 13.6996 89.4952 13.6387 89.5573C13.5778 89.6194 13.4947 89.6548 13.4077 89.6557Z" fill="#FF6A5D"/>
<path d="M81.9839 26.5833L99.6013 36.7138V77.0743L64.4809 97.2593L29.3606 77.0743V36.7043L65.8163 15.7502C66.4323 15.3964 66.8819 14.8136 67.0661 14.1298C67.2503 13.4461 67.1542 12.7175 66.7988 12.1044C66.4433 11.4912 65.8577 11.0438 65.1709 10.8604C64.484 10.677 63.752 10.7727 63.136 11.1265L25.3449 32.8591C24.9371 33.0923 24.5981 33.4283 24.362 33.8333C24.1259 34.2383 24.0011 34.698 24 35.1662V78.6124C24.0011 79.0806 24.1259 79.5403 24.362 79.9452C24.5981 80.3502 24.9371 80.6862 25.3449 80.9195L63.1455 102.643C63.553 102.877 64.0152 103 64.4857 103C64.9562 103 65.4184 102.877 65.8258 102.643L103.655 80.9195C104.063 80.6862 104.402 80.3502 104.638 79.9452C104.874 79.5403 104.999 79.0806 105 78.6124V35.1662C104.999 34.698 104.874 34.2383 104.638 33.8333C104.402 33.4283 104.063 33.0923 103.655 32.8591L84.6641 21.9595C84.0482 21.6058 83.3162 21.51 82.6293 21.6934C81.9424 21.8768 81.3568 22.3243 81.0014 22.9375C80.646 23.5506 80.5498 24.2792 80.7341 24.9629C80.9183 25.6466 81.3679 26.2295 81.9839 26.5833Z" fill="#F4D8E8"/>
<path d="M56.9745 64.6842V39.5242C56.9846 37.5474 57.7812 35.6552 59.19 34.2618C60.5987 32.8685 62.5048 32.0876 64.4907 32.0901C65.4765 32.0901 66.4527 32.2834 67.3634 32.6589C68.2742 33.0344 69.1017 33.5848 69.7988 34.2786C70.4958 34.9725 71.0488 35.7962 71.426 36.7027C71.8033 37.6093 71.9974 38.5809 71.9974 39.5622V64.7222H76.8429V39.5242C76.8429 36.2507 75.5365 33.1113 73.2111 30.7966C70.8856 28.4819 67.7317 27.1815 64.443 27.1815C62.8147 27.1815 61.2022 27.5008 59.6978 28.121C58.1934 28.7413 56.8264 29.6505 55.675 30.7966C54.5235 31.9427 53.6102 33.3034 52.987 34.8009C52.3639 36.2983 52.0431 37.9033 52.0431 39.5242V64.6842H56.8886H56.9745Z" fill="#EFF1F3"/>
<path d="M79.313 53.9081H49.6582C47.9461 53.9081 46.5582 55.2896 46.5582 56.9937V76.704C46.5582 78.4082 47.9461 79.7897 49.6582 79.7897H79.313C81.0251 79.7897 82.413 78.4082 82.413 76.704V56.9937C82.413 55.2896 81.0251 53.9081 79.313 53.9081Z" fill="#6D6CEC"/>
<path d="M66.3885 67.1558L67.0276 76.09H61.9437L62.5827 67.1463C62.2543 66.8736 61.9901 66.5325 61.8088 66.1469C61.6275 65.7613 61.5335 65.3408 61.5335 64.9151C61.5342 64.4228 61.6595 63.9385 61.8976 63.5069C62.1358 63.0754 62.4793 62.7104 62.8964 62.4457C63.3135 62.181 63.7908 62.0251 64.2844 61.9922C64.7779 61.9594 65.2719 62.0508 65.7206 62.2579C66.1694 62.465 66.5586 62.7812 66.8523 63.1774C67.1461 63.5736 67.3349 64.037 67.4014 64.5249C67.468 65.0128 67.4101 65.5095 67.2331 65.9693C67.056 66.4291 66.7656 66.8371 66.3885 67.1558Z" fill="#EFF1F3"/>
<ellipse cx="82.4335" cy="22.1838" rx="2.70621" ry="2.70621" transform="rotate(20.2753 82.4335 22.1838)" fill="#FF8A00"/>
<path d="M82.5142 6.34631L82.9831 5.07705C84.019 2.27307 87.1318 0.839721 89.9357 1.87557V1.87557V1.87557C92.7397 2.91142 94.1731 6.02421 93.1372 8.82819L93.0235 9.13616C92.4958 10.5644 91.4225 11.7245 90.0395 12.3613L85.2468 14.5682" stroke="#FF8A00" stroke-width="3" stroke-linecap="round" stroke-linejoin="round"/>
</svg>
