<svg width="24" height="24" viewBox="0 0 24 24" fill="none" xmlns="http://www.w3.org/2000/svg">
<path d="M3.80225 6.5004L9.58247 10.63C10.7295 11.4496 12.2705 11.4496 13.4175 10.63L19.1977 6.5004M2.38539 15.1513C1.87154 13.0819 1.87154 10.9181 2.38539 8.84875C3.05805 6.13984 5.20602 4.04534 7.93056 3.44162L8.38443 3.34105C10.4366 2.88632 12.5634 2.88632 14.6156 3.34105L15.0694 3.44162C17.794 4.04534 19.942 6.13984 20.6146 8.84876C21.1285 10.9182 21.1285 13.0819 20.6146 15.1512C19.942 17.8602 17.794 19.9547 15.0694 20.5584L14.6156 20.659C12.5634 21.1137 10.4366 21.1137 8.38443 20.659L7.93055 20.5584C5.20601 19.9547 3.05805 17.8602 2.38539 15.1513Z" stroke="#1C1243" stroke-width="1.5" stroke-linecap="round"/>
</svg>
